<svg width="110" height="84" viewBox="0 0 110 84" fill="none" xmlns="http://www.w3.org/2000/svg">
<path d="M20 34.44C20 35.56 19.6533 36.4667 18.96 37.16C18.2667 37.8267 17.36 38.16 16.24 38.16H14.56C13.44 38.16 12.5333 37.8267 11.84 37.16C11.1467 36.4667 10.8 35.56 10.8 34.44V26.08H14.6V34.24C14.6 34.3733 14.6667 34.44 14.8 34.44H16C16.1333 34.44 16.2 34.3733 16.2 34.24V13.72H14.6L14.92 10H20V34.44ZM25.3813 30V34.24C25.3813 34.3733 25.4479 34.44 25.5813 34.44H27.1813C27.3146 34.44 27.3813 34.3733 27.3813 34.24V27.04L24.2213 25.64C23.9813 25.56 23.6479 25.4267 23.2213 25.24C22.7946 25.0267 22.4079 24.72 22.0613 24.32C21.7413 23.92 21.5813 23.3733 21.5813 22.68V13.56C21.5813 12.44 21.9279 11.5467 22.6213 10.88C23.3146 10.1867 24.2213 9.84 25.3413 9.84H27.4213C28.5413 9.84 29.4479 10.1867 30.1413 10.88C30.8346 11.5467 31.1813 12.44 31.1813 13.56V19.48L27.3813 19.16V13.76C27.3813 13.6267 27.3146 13.56 27.1813 13.56H25.5813C25.4479 13.56 25.3813 13.6267 25.3813 13.76V22.12L28.5413 23.52C28.7813 23.6267 29.1146 23.7733 29.5413 23.96C29.9679 24.1467 30.3413 24.44 30.6613 24.84C31.0079 25.24 31.1813 25.7867 31.1813 26.48V34.44C31.1813 35.56 30.8346 36.4667 30.1413 37.16C29.4479 37.8267 28.5413 38.16 27.4213 38.16H25.3413C24.2213 38.16 23.3146 37.8267 22.6213 37.16C21.9279 36.4667 21.5813 35.56 21.5813 34.44V30H25.3813ZM43.3875 34.28C43.3875 35.4 43.0408 36.3067 42.3475 37C41.6542 37.6667 40.7475 38 39.6275 38H36.7475C35.6275 38 34.7208 37.6667 34.0275 37C33.3342 36.3067 32.9875 35.4 32.9875 34.28V13.72C32.9875 12.6 33.3342 11.7067 34.0275 11.04C34.7208 10.3467 35.6275 10 36.7475 10H39.6275C40.7475 10 41.6542 10.3467 42.3475 11.04C43.0408 11.7067 43.3875 12.6 43.3875 13.72V20.12H39.5875V13.92C39.5875 13.7867 39.5208 13.72 39.3875 13.72H36.9875C36.8542 13.72 36.7875 13.7867 36.7875 13.92V34.08C36.7875 34.2133 36.8542 34.28 36.9875 34.28H39.3875C39.5208 34.28 39.5875 34.2133 39.5875 34.08V25.8H38.0275L38.3475 22.08H43.3875V34.28ZM49.3397 18V19.76L50.4197 18H53.0997V21.88H49.3397V38H45.5397V21.72H44.5797L44.9797 18H49.3397ZM58.1603 38C56.9336 38 55.947 37.6533 55.2003 36.96C54.4803 36.24 54.1203 35.3467 54.1203 34.28V21.72C54.1203 20.6267 54.4803 19.7333 55.2003 19.04C55.947 18.3467 56.9336 18 58.1603 18H58.3203C59.0403 18 59.6803 18.1733 60.2403 18.52V18H64.0403V34.28H64.6003L65.0003 38H60.2403V36.44L59.2403 38H58.1603ZM58.1203 21.72C57.987 21.72 57.9203 21.7867 57.9203 21.92V34.08C57.9203 34.2133 57.987 34.28 58.1203 34.28H60.2403V21.72H58.1203ZM70.2306 38C69.004 38 68.0173 37.6533 67.2706 36.96C66.5506 36.24 66.1906 35.3467 66.1906 34.28V21.72C66.1906 20.6267 66.5506 19.7333 67.2706 19.04C68.0173 18.3467 69.004 18 70.2306 18H70.3906C71.1106 18 71.7506 18.1733 72.3106 18.52V13.72H71.3506L71.7506 10H76.1106V34.28H76.6706L77.0706 38H72.3106V36.44L71.3106 38H70.2306ZM70.1906 21.72C70.0573 21.72 69.9906 21.7867 69.9906 21.92V34.08C69.9906 34.2133 70.0573 34.28 70.1906 34.28H72.3106V21.72H70.1906ZM77.8703 34.44V21.56C77.8703 20.44 78.217 19.5467 78.9103 18.88C79.6036 18.1867 80.5103 17.84 81.6303 17.84H84.1103C85.2303 17.84 86.137 18.1867 86.8303 18.88C87.5236 19.5467 87.8703 20.44 87.8703 21.56V26.48H84.0703V21.76C84.0703 21.6267 84.0036 21.56 83.8703 21.56H81.8703C81.737 21.56 81.6703 21.6267 81.6703 21.76V26.48H87.8703V30.2H81.6703V34.24C81.6703 34.3733 81.737 34.44 81.8703 34.44H83.8703C84.0036 34.44 84.0703 34.3867 84.0703 34.28V32.08H87.8703V34.44C87.8703 35.56 87.5236 36.4667 86.8303 37.16C86.137 37.8267 85.2303 38.16 84.1103 38.16H81.6303C80.5103 38.16 79.6036 37.8267 78.9103 37.16C78.217 36.4667 77.8703 35.56 77.8703 34.44ZM89.4719 31.72L93.2719 32.12V34.08C93.2719 34.2133 93.3385 34.28 93.4719 34.28H95.0719C95.2052 34.28 95.2719 34.2133 95.2719 34.08V30.36L91.7119 28.84C91.2852 28.6533 90.8052 28.36 90.2719 27.96C89.7385 27.56 89.4719 26.9067 89.4719 26V21.56C89.4719 20.44 89.8185 19.5467 90.5119 18.88C91.2052 18.1867 92.1119 17.84 93.2319 17.84H95.3119C96.4319 17.84 97.3385 18.1867 98.0319 18.88C98.7252 19.5467 99.0719 20.44 99.0719 21.56V24.12L95.2719 23.72V21.76C95.2719 21.6267 95.2052 21.56 95.0719 21.56H93.4719C93.3385 21.56 93.2719 21.6267 93.2719 21.76V25.48L96.8319 27C97.2585 27.1867 97.7385 27.48 98.2719 27.88C98.8052 28.28 99.0719 28.9333 99.0719 29.84V34.28C99.0719 35.4 98.7252 36.3067 98.0319 37C97.3385 37.6667 96.4319 38 95.3119 38H93.2319C92.1119 38 91.2052 37.6667 90.5119 37C89.8185 36.3067 89.4719 35.4 89.4719 34.28V31.72Z" fill="#030121"/>
<line y1="46" x2="45" y2="46" stroke="#030121" stroke-width="4"/>
<line x1="65" y1="2" x2="110" y2="2" stroke="#030121" stroke-width="4"/>
<line x1="2" y1="18" x2="2" y2="48" stroke="#030121" stroke-width="4"/>
<line x1="108" y1="1" x2="108" y2="31" stroke="#030121" stroke-width="4"/>
</svg>
